<svg width="428" height="492" viewBox="0 0 428 492" fill="none" xmlns="http://www.w3.org/2000/svg">
<g clip-path="url(#clip0_1_2)">
<path d="M428 187.787C428 189.184 427.983 190.58 427.95 191.973C427.936 192.884 427.908 193.794 427.872 194.705C427.865 194.966 427.858 195.22 427.844 195.482C427.822 195.983 427.801 196.477 427.78 196.964C427.623 200.219 427.382 203.45 427.055 206.657C427.04 206.812 427.026 206.968 427.012 207.116C426.976 207.434 426.948 207.751 426.905 208.069C426.806 209.022 426.699 209.975 426.578 210.914C426.5 211.549 426.422 212.178 426.337 212.813C426.294 213.117 426.251 213.42 426.216 213.717C426.166 214.049 426.123 214.373 426.074 214.698C426.052 214.839 426.031 214.98 426.01 215.129C425.939 215.609 425.867 216.096 425.789 216.576C425.697 217.204 425.597 217.825 425.491 218.454C425.391 219.075 425.285 219.696 425.171 220.317C425.064 220.939 424.95 221.56 424.837 222.181C424.723 222.81 424.602 223.431 424.481 224.052C423.87 227.13 423.188 230.182 422.434 233.208C422.136 234.387 421.83 235.564 421.517 236.738C420.998 238.644 420.451 240.541 419.875 242.428C419.712 242.951 419.548 243.473 419.385 243.988C419.2 244.581 419.008 245.174 418.816 245.76C418.624 246.353 418.432 246.939 418.233 247.525C418.034 248.111 417.835 248.697 417.629 249.283C417.43 249.862 417.224 250.448 417.01 251.027C416.804 251.613 416.591 252.192 416.378 252.771C416.157 253.35 415.944 253.928 415.724 254.5C415.283 255.658 414.831 256.804 414.366 257.938C414.139 258.51 413.904 259.082 413.662 259.647C412.717 261.92 411.727 264.167 410.691 266.389C410.464 266.883 410.236 267.377 410.002 267.864C409.845 268.189 409.696 268.507 409.54 268.831C409.276 269.368 409.021 269.897 408.758 270.427C408.495 270.963 408.224 271.507 407.947 272.051C407.4 273.124 406.843 274.194 406.277 275.263C405.715 276.329 405.139 277.395 404.549 278.447C403.959 279.498 403.362 280.55 402.758 281.588C402.453 282.111 402.147 282.633 401.841 283.148C400.611 285.217 399.341 287.262 398.031 289.283C396.73 291.295 395.387 293.284 394.001 295.249C393.311 296.23 392.607 297.211 391.897 298.178C391.612 298.567 391.328 298.948 391.044 299.329C390.695 299.809 390.333 300.282 389.97 300.755C374.565 321.105 355.151 338.129 332.91 350.791C310.669 363.452 286.066 371.486 260.599 374.404C235.132 377.322 209.334 375.062 184.774 367.763C160.214 360.463 137.407 348.277 117.741 331.945C115.665 330.222 113.627 328.457 111.628 326.65C98.7948 315.044 87.6232 301.747 78.4244 287.13C77.2799 285.302 76.1568 283.452 75.0763 281.588C58.4896 253.075 49.7818 220.716 49.8345 187.787C49.8345 84.0733 134.488 -2.65658e-05 238.917 -2.65658e-05C270.34 -0.0189408 301.271 7.74645 328.91 22.593C356.549 37.4396 380.023 58.8984 397.207 85.0264C397.519 85.4994 397.832 85.9794 398.145 86.4595C415.23 112.866 425.334 143.124 427.524 174.437C427.844 178.842 428.002 183.292 428 187.787Z" fill="#F2F2F2"/>
<path d="M398.145 86.4595H136.237C136.048 86.4549 135.869 86.3774 135.738 86.2436C135.606 86.1097 135.533 85.93 135.533 85.7429C135.533 85.5558 135.606 85.3762 135.738 85.2423C135.869 85.1084 136.048 85.0309 136.237 85.0264H397.207C397.519 85.4994 397.832 85.9794 398.145 86.4595Z" fill="#CACACA"/>
<path d="M152.127 76.4271C156.416 76.4271 159.893 72.897 159.893 68.5423C159.893 64.1877 156.416 60.6575 152.127 60.6575C147.838 60.6575 144.361 64.1877 144.361 68.5423C144.361 72.897 147.838 76.4271 152.127 76.4271Z" fill="#3F3D56"/>
<path d="M178.955 76.4271C183.244 76.4271 186.721 72.897 186.721 68.5423C186.721 64.1877 183.244 60.6575 178.955 60.6575C174.666 60.6575 171.189 64.1877 171.189 68.5423C171.189 72.897 174.666 76.4271 178.955 76.4271Z" fill="#3F3D56"/>
<path d="M205.784 76.4271C210.073 76.4271 213.55 72.897 213.55 68.5423C213.55 64.1877 210.073 60.6575 205.784 60.6575C201.494 60.6575 198.017 64.1877 198.017 68.5423C198.017 72.897 201.494 76.4271 205.784 76.4271Z" fill="#3F3D56"/>
<path d="M427.524 174.437C420.693 177.522 414.572 182.506 409.227 189.361C403.05 197.289 396.432 202.873 389.672 206.657C389.352 206.834 389.039 207.003 388.719 207.172C382.659 210.416 376.013 212.438 369.164 213.124C367.095 213.331 365.017 213.43 362.937 213.42C362.07 213.413 361.203 213.392 360.342 213.35C358.302 213.251 356.284 213.053 354.3 212.771C342.913 211.161 332.613 206.812 324.985 202.725C314.535 197.001 303.191 193.058 291.427 191.062C289.323 190.716 287.223 190.446 285.129 190.25C284.262 190.166 283.401 190.102 282.541 190.046C280.43 189.905 278.321 189.839 276.215 189.848C275.134 189.855 274.061 189.876 272.981 189.919C254.826 190.625 231.148 195.764 209.915 213.717C209.631 213.957 209.354 214.197 209.069 214.437C208.806 214.663 208.543 214.896 208.28 215.129C204.919 218.096 201.752 221.272 198.798 224.638C195.41 228.493 192.276 232.561 189.414 236.816C186.016 241.797 182.047 246.37 177.586 250.441C170.988 256.488 165.705 263.81 162.06 271.959C158.414 280.107 156.485 288.91 156.389 297.825V298.178C156.382 298.56 156.382 298.948 156.382 299.329H391.051C391.335 298.948 391.619 298.567 391.897 298.178C392.607 297.211 393.311 296.23 394.001 295.249C395.387 293.286 396.73 291.298 398.031 289.283C399.346 287.264 400.616 285.219 401.841 283.148C402.147 282.633 402.452 282.111 402.758 281.588C403.362 280.55 403.959 279.499 404.549 278.447C405.139 277.395 405.715 276.329 406.277 275.263C406.845 274.197 407.402 273.126 407.947 272.051C408.224 271.507 408.495 270.963 408.758 270.427C409.021 269.897 409.277 269.368 409.54 268.831C409.696 268.507 409.845 268.189 410.002 267.864C410.236 267.377 410.464 266.883 410.691 266.389C411.729 264.165 412.719 261.918 413.662 259.647C413.904 259.082 414.139 258.51 414.366 257.938C414.828 256.802 415.281 255.656 415.724 254.5C415.944 253.929 416.157 253.35 416.378 252.771C416.591 252.192 416.804 251.613 417.01 251.027C417.224 250.448 417.43 249.862 417.629 249.283C417.835 248.697 418.034 248.111 418.233 247.525C418.432 246.939 418.624 246.353 418.816 245.76C419.008 245.175 419.2 244.582 419.385 243.989C419.548 243.473 419.712 242.951 419.875 242.428C420.451 240.543 420.998 238.647 421.517 236.738C421.83 235.566 422.136 234.39 422.434 233.208C423.188 230.187 423.87 227.135 424.481 224.052C424.602 223.431 424.723 222.81 424.837 222.181C424.95 221.56 425.064 220.939 425.171 220.318C425.285 219.696 425.391 219.075 425.491 218.454C425.597 217.826 425.697 217.204 425.789 216.576C425.867 216.096 425.939 215.609 426.01 215.129C426.031 214.98 426.052 214.839 426.074 214.698C426.123 214.366 426.166 214.042 426.209 213.717C426.251 213.413 426.294 213.11 426.337 212.813C426.422 212.178 426.5 211.549 426.578 210.914C426.699 209.975 426.806 209.022 426.905 208.069H426.912C426.941 207.751 426.976 207.434 427.012 207.116C427.026 206.968 427.04 206.812 427.055 206.657C427.382 203.452 427.623 200.221 427.78 196.964C427.801 196.477 427.822 195.983 427.844 195.482C427.858 195.221 427.865 194.966 427.872 194.705C427.908 193.794 427.936 192.884 427.95 191.973C427.986 190.582 428.002 189.187 428 187.787C428 183.297 427.841 178.847 427.524 174.437Z" fill="#6C63FF"/>
<path d="M207.488 221.783H204.895V297.278H207.488V221.783Z" fill="#3F3D56"/>
<path d="M285.132 186.524H282.539V297.278H285.132V186.524Z" fill="#3F3D56"/>
<path d="M362.936 209.705H360.342V297.278H362.936V209.705Z" fill="#3F3D56"/>
<path d="M283.995 196.178C288.377 196.178 291.929 192.651 291.929 188.299C291.929 183.947 288.377 180.419 283.995 180.419C279.614 180.419 276.062 183.947 276.062 188.299C276.062 192.651 279.614 196.178 283.995 196.178Z" fill="#3F3D56"/>
<path d="M361.799 218.072C366.181 218.072 369.733 214.544 369.733 210.192C369.733 205.84 366.181 202.313 361.799 202.313C357.417 202.313 353.865 205.84 353.865 210.192C353.865 214.544 357.417 218.072 361.799 218.072Z" fill="#3F3D56"/>
<path d="M204.77 223.308C209.152 223.308 212.704 219.781 212.704 215.429C212.704 211.077 209.152 207.55 204.77 207.55C200.388 207.55 196.836 211.077 196.836 215.429C196.836 219.781 200.388 223.308 204.77 223.308Z" fill="#3F3D56"/>
<path d="M391.897 298.178C391.612 298.567 391.328 298.948 391.044 299.329C390.695 299.809 390.333 300.282 389.97 300.755H156.126V298.178H391.897Z" fill="#3F3D56"/>
<path d="M90.3581 483.674H97.8724L101.447 454.888L90.3567 454.888L90.3581 483.674Z" fill="#FFB8B8"/>
<path d="M109.907 483.981C109.035 483.106 107.996 482.413 106.851 481.941C105.705 481.475 104.478 481.235 103.24 481.235L98.8112 477.903L98.5766 477.995L90.5584 481.235H88.4401V490.907H112.673V490.603C112.676 489.372 112.434 488.153 111.959 487.017C111.484 485.88 110.787 484.848 109.907 483.981V483.981Z" fill="#2F2E41"/>
<path d="M125.269 483.674H132.784L136.359 454.888L125.268 454.888L125.269 483.674Z" fill="#FFB8B8"/>
<path d="M144.824 483.981C143.95 483.105 142.908 482.411 141.76 481.941C140.614 481.474 139.387 481.234 138.149 481.235L133.727 477.903L133.486 478.002L125.468 481.235H123.349L123.356 490.907H147.582V490.603C147.585 489.373 147.343 488.155 146.87 487.018C146.396 485.882 145.701 484.849 144.824 483.981V483.981Z" fill="#2F2E41"/>
<path d="M131.276 326.143L72.2349 327.672L73.2617 356.226C73.2617 356.226 72.2348 363.874 74.2885 365.913C76.3421 367.953 77.3689 367.953 76.3421 371.522C75.3153 375.091 80.7404 380.921 80.0814 381.575C79.4225 382.23 77.8823 385.799 77.8823 385.799L83.0163 414.862C83.0163 414.862 86.6101 465.34 87.6369 466.36C88.6637 467.38 89.6905 466.36 88.6637 468.91C87.6369 471.459 86.6101 470.439 87.6369 471.459C88.5465 472.433 89.4033 473.454 90.2039 474.518H102.617C102.617 474.518 103.552 469.419 103.552 468.91C103.552 468.4 104.579 465.34 104.579 464.831C104.579 464.321 103.672 463.419 103.672 463.419C103.358 462.383 103.146 461.319 103.039 460.242C103.039 459.222 99.9586 419.961 99.9586 419.961L106.119 368.973L121.008 418.941C121.008 418.941 121.008 462.791 122.035 463.811C123.062 464.83 123.062 464.321 122.548 466.36C122.035 468.4 119.981 467.89 121.521 469.419C123.062 470.949 123.575 468.4 123.062 470.949L122.548 473.499L137.95 473.717C137.95 473.717 140.004 469.419 138.977 467.89C137.95 466.36 138.012 466.778 139.265 464.274C140.517 461.771 141.031 461.261 140.517 460.751C140.004 460.242 140.004 457.53 140.004 457.53L137.437 408.743C137.437 408.743 136.923 357.245 136.923 355.716C136.885 354.929 137.031 354.143 137.35 353.422V351.346L135.383 343.988L131.276 326.143Z" fill="#2F2E41"/>
<path d="M198.092 214.936C197.809 215.719 197.356 216.431 196.765 217.022C196.174 217.612 195.46 218.067 194.673 218.354C193.887 218.64 193.046 218.752 192.211 218.682C191.376 218.611 190.566 218.359 189.84 217.944L164.211 239.268L162.819 228.845L187.886 209.788C188.668 208.622 189.855 207.781 191.22 207.426C192.585 207.071 194.033 207.225 195.291 207.859C196.55 208.494 197.53 209.565 198.046 210.869C198.562 212.173 198.579 213.62 198.092 214.936H198.092Z" fill="#FFB8B8"/>
<path d="M85.0848 223.737C93.8746 223.737 101 216.66 101 207.93C101 199.201 93.8746 192.124 85.0848 192.124C76.2949 192.124 69.1693 199.201 69.1693 207.93C69.1693 216.66 76.2949 223.737 85.0848 223.737Z" fill="#FFB8B8"/>
<path d="M97.9874 192.2C96.5057 188.692 90.1557 186.61 80.1077 186.923C70.0597 187.237 68.3001 199.137 68.3001 199.137C62.7656 204.26 71.7009 220.256 73.2511 218.05C74.8013 215.845 77.404 217.929 77.404 217.929L74.9236 204.074C77.5429 205.074 80.36 205.746 82.8237 204.581L78.7417 202.413L88.8911 203.667L84.7054 200.469C84.8069 200.436 84.9084 200.401 85.0099 200.367C86.6885 201.086 88.4861 201.491 90.3127 201.563C92.4466 201.547 94.7144 200.554 95.6086 198.63C95.8464 198.101 95.9752 197.531 95.9874 196.952C98.9297 197.901 100.475 201.324 100.475 201.324C99.916 198.216 99.0837 195.163 97.9874 192.2V192.2Z" fill="#2F2E41"/>
<path d="M97.8244 224.444C94.2702 224.444 91.9813 224.931 86.451 225.856C76.2434 227.564 82.3566 237.196 82.3566 237.196C82.3566 237.196 82.8186 236.964 81.5675 237.196C80.3165 237.429 76.0514 241.093 76.0514 241.093L68.4241 247.821C56.9299 256.78 59.5031 270.758 59.5031 270.758L76.2647 287.511L68.9217 321.122C68.9217 321.122 72.0423 326.113 70.4287 328.351C68.8151 330.589 84.6454 329.946 84.6454 329.946C95.571 334.782 134.063 330.695 134.063 330.695C133.53 329.311 128.376 318.587 128.376 318.587C130.615 314.747 128.483 309.198 128.483 309.198C128.483 309.198 126.258 282.95 124.836 279.321C123.414 275.693 128.476 256.032 131.802 256.243C135.129 256.455 156.618 245.569 156.618 245.569C156.618 245.569 156.077 244.715 163.172 241.835C167.246 240.245 170.982 237.905 174.183 234.937L177.097 229.156C175.697 229.692 170.97 220.839 170.97 220.839L168.908 221.62L167.714 221.277C167.714 221.277 158.395 223.91 156.49 225.83C154.585 227.751 153.945 227.214 152.225 227.645C150.504 228.075 150.291 229.276 149.751 229.141C149.211 229.007 148.251 230.631 147.498 230.419C146.744 230.207 145.131 231.062 144.057 231.273C142.984 231.485 135.357 234.69 135.357 234.69C130.637 232.318 117.841 233.278 117.841 233.278C117.841 233.278 113.655 230.829 112.468 233.278C112.148 233.974 111.635 234.565 110.989 234.982C110.343 235.398 109.591 235.623 108.821 235.629L103.717 233.462C103.421 234.537 97.8535 223.329 97.8244 224.444Z" fill="#3F3D56"/>
<path d="M40.7532 452.516L40.044 436.679C32.6505 432.754 24.4041 430.681 16.0208 430.639C27.5587 440.008 26.1168 458.067 33.9392 470.665C36.4093 474.576 39.7338 477.884 43.6664 480.346C47.5991 482.807 52.0389 484.358 56.6571 484.883L66.3124 490.754C67.6373 483.419 67.3452 475.886 65.4562 468.673C63.5673 461.461 60.1264 454.741 55.3706 448.976C52.6704 445.768 49.5741 442.911 46.155 440.472C43.8426 446.528 40.7532 452.516 40.7532 452.516Z" fill="#F2F2F2"/>
<path d="M3.74233e-06 491.16C-0.000327562 491.27 0.0213418 491.38 0.0637379 491.482C0.106134 491.584 0.168424 491.677 0.247044 491.755C0.325664 491.833 0.419046 491.895 0.52183 491.937C0.624614 491.979 0.734764 492 0.845945 492H202.219C202.443 492 202.659 491.911 202.817 491.754C202.976 491.596 203.065 491.383 203.065 491.16C203.065 490.937 202.976 490.723 202.817 490.566C202.659 490.408 202.443 490.32 202.219 490.32H0.845945C0.734765 490.319 0.624612 490.341 0.52183 490.383C0.419047 490.425 0.325663 490.487 0.247044 490.565C0.168425 490.643 0.106135 490.736 0.0637379 490.838C0.0213405 490.94 -0.000323788 491.049 3.74233e-06 491.16Z" fill="#CCCCCC"/>
<path d="M210.048 213.716H205.783V215.128H210.048V213.716Z" fill="#3F3D56"/>
<path d="M218.658 213.717V215.129H227.274V213.717H218.658ZM235.889 213.717V215.129H244.497V213.717H235.889ZM253.113 213.717V215.129H261.728V213.717H253.113ZM270.336 213.717V215.129H278.952V213.717H270.336ZM287.567 213.717V215.129H296.175V213.717H287.567ZM304.791 213.717V215.129H313.406V213.717H304.791ZM322.014 213.717V215.129H330.63V213.717H322.014ZM339.245 213.717V215.129H347.853V213.717H339.245ZM356.468 213.717V215.129H365.084V213.717H356.468ZM373.692 213.717V215.129H382.307V213.717H373.692ZM390.916 213.717V215.129H399.531V213.717H390.916ZM408.146 213.717V215.129H416.755V213.717H408.146ZM425.37 213.717V215.129H426.01C426.031 214.98 426.052 214.839 426.074 214.698C426.123 214.373 426.166 214.049 426.216 213.717H425.37Z" fill="#3F3D56"/>
<path d="M283.976 185.478H279.711V186.89H283.976V185.478Z" fill="#3F3D56"/>
<path d="M292.585 185.478V186.89H301.201V185.478H292.585ZM309.816 185.478V186.89H318.424V185.478H309.816ZM327.04 185.478V186.89H335.655V185.478H327.04ZM344.263 185.478V186.89H352.879V185.478H344.263ZM361.494 185.478V186.89H370.102V185.478H361.494ZM378.718 185.478V186.89H387.333V185.478H378.718ZM395.941 185.478V186.89H404.557V185.478H395.941ZM413.172 185.478V186.89H421.78V185.478H413.172Z" fill="#3F3D56"/>
<path d="M362.879 206.657H358.614V208.069H362.879V206.657Z" fill="#3F3D56"/>
<path d="M371.488 206.657V208.069H380.104V206.657H371.488ZM388.719 206.657V208.069H397.327V206.657H388.719ZM405.943 206.657V208.069H414.558V206.657H405.943ZM423.166 206.657V208.069H426.912C426.941 207.751 426.976 207.434 427.012 207.116C427.026 206.968 427.04 206.812 427.055 206.657H423.166Z" fill="#3F3D56"/>
<path d="M108.834 353.906V308.436C108.835 307.515 109.204 306.633 109.859 305.982C110.514 305.331 111.403 304.965 112.329 304.964H146.907C147.834 304.965 148.722 305.331 149.377 305.982C150.032 306.633 150.401 307.515 150.402 308.436V353.906C150.401 354.827 150.032 355.709 149.377 356.36C148.722 357.011 147.834 357.377 146.907 357.378H112.329C111.403 357.377 110.514 357.011 109.859 356.36C109.204 355.709 108.835 354.827 108.834 353.906V353.906Z" fill="#E6E6E6"/>
<path d="M111.486 340.172V310.94C111.487 310.078 111.832 309.251 112.446 308.642C113.06 308.032 113.892 307.69 114.76 307.689H144.476C145.344 307.69 146.176 308.032 146.79 308.642C147.404 309.251 147.749 310.078 147.75 310.94V351.402C147.749 352.264 147.404 353.091 146.79 353.7C146.176 354.31 145.344 354.652 144.476 354.653H126.067C122.202 354.649 118.495 353.122 115.762 350.407C113.028 347.692 111.491 344.012 111.486 340.172Z" fill="white"/>
<path d="M116.298 319.096C116.299 318.254 116.636 317.446 117.236 316.851C117.835 316.255 118.648 315.92 119.497 315.919H140.111C140.959 315.919 141.773 316.254 142.373 316.85C142.973 317.445 143.31 318.254 143.31 319.096C143.31 319.939 142.973 320.747 142.373 321.342C141.773 321.938 140.959 322.273 140.111 322.273H119.497C118.648 322.272 117.835 321.937 117.236 321.341C116.636 320.746 116.299 319.938 116.298 319.096V319.096Z" fill="#E6E6E6"/>
<path d="M116.298 328.98C116.299 328.137 116.636 327.33 117.236 326.734C117.835 326.139 118.648 325.804 119.497 325.803H140.111C140.959 325.803 141.773 326.137 142.373 326.733C142.973 327.329 143.31 328.137 143.31 328.98C143.31 329.822 142.973 330.63 142.373 331.226C141.773 331.822 140.959 332.156 140.111 332.156H119.497C118.648 332.156 117.835 331.821 117.236 331.225C116.636 330.629 116.299 329.822 116.298 328.98V328.98Z" fill="#E6E6E6"/>
<path d="M116.298 338.863C116.299 338.021 116.636 337.213 117.236 336.618C117.835 336.022 118.648 335.687 119.497 335.686H140.111C140.959 335.686 141.773 336.021 142.373 336.617C142.973 337.212 143.31 338.021 143.31 338.863C143.31 339.706 142.973 340.514 142.373 341.109C141.773 341.705 140.959 342.04 140.111 342.04H119.497C118.648 342.039 117.835 341.704 117.236 341.108C116.636 340.513 116.299 339.705 116.298 338.863V338.863Z" fill="#E6E6E6"/>
<path d="M109.651 338.022C108.873 338.036 108.102 337.881 107.391 337.568C106.681 337.254 106.048 336.789 105.538 336.206C105.028 335.623 104.652 334.937 104.438 334.194C104.224 333.452 104.177 332.672 104.299 331.909L74.7783 315.856L83.4184 311.215L110.775 327.533C112.052 327.822 113.177 328.566 113.938 329.624C114.699 330.682 115.043 331.981 114.904 333.274C114.766 334.566 114.154 335.764 113.186 336.639C112.218 337.514 110.96 338.006 109.651 338.022V338.022Z" fill="#FFB8B8"/>
<path d="M92.4847 326.156L82.0162 324.309L78.2679 321.214L75.747 319.939L67.0586 313.882L67.0327 313.806L53.2273 273.277C52.5934 269.948 53.2645 266.505 55.1033 263.653C56.9421 260.8 59.8095 258.753 63.1183 257.931C64.9479 257.479 66.8533 257.417 68.7089 257.749C70.5645 258.081 72.3282 258.8 73.884 259.857C75.4399 260.915 76.7525 262.288 77.7355 263.886C78.7185 265.484 79.3496 267.27 79.5872 269.128L84.0302 303.863L91.3949 311.417L94.6172 312.036L95.3589 315.482L98.1714 319.802L92.4847 326.156Z" fill="#3F3D56"/>
</g>
<defs>
<clipPath id="clip0_1_2">
<rect width="428" height="492" fill="white"/>
</clipPath>
</defs>
</svg>
